<svg xmlns="http://www.w3.org/2000/svg" xmlns:xlink="http://www.w3.org/1999/xlink" version="1.1" x="0px" y="0px" viewBox="0 0 100 100" style="enable-background:new 0 0 100 100;" xml:space="preserve"><title>Artboard 50</title><path d="M90.6,50L90.6,50c0,0,0,0,0-0.2c0-0.8-0.4-1.5-0.9-2L77.2,35.3c-1.3-1.2-3.2-1.1-4.4,0.2c-1.1,1.2-1.1,3.1,0,4.3l7.2,7.2  H53.1V20l7.2,7.2c1.2,1.3,3.2,1.3,4.4,0.2c1.3-1.2,1.3-3.2,0.2-4.4c-0.1-0.1-0.1-0.1-0.2-0.2L52.2,10.3c-1.2-1.2-3.2-1.2-4.4,0  L35.3,22.8C34,24,34,25.9,35.1,27.2c1.2,1.3,3.2,1.3,4.4,0.2c0.1-0.1,0.1-0.1,0.2-0.2l7.2-7.2v26.8H20l7.2-7.2  c1.2-1.3,1.1-3.2-0.2-4.4c-1.2-1.1-3.1-1.1-4.3,0L10.3,47.8c-1.2,1.2-1.2,3.2,0,4.4l12.5,12.5c1.3,1.2,3.2,1.1,4.4-0.2  c1.1-1.2,1.1-3.1,0-4.3L20,53.1h26.8V80l-7.2-7.2c-1.3-1.2-3.2-1.1-4.4,0.2c-1.1,1.2-1.1,3.1,0,4.3l12.5,12.5l0.4,0.2  c0.2,0.2,0.4,0.3,0.6,0.4c0.4,0.2,0.8,0.2,1.2,0.2l0,0c0.8,0,1.5-0.4,2-0.9l12.5-12.5c1.2-1.3,1.1-3.2-0.2-4.4  c-1.2-1.1-3.1-1.1-4.3,0L53,80V53.1h26.8l-7.2,7.2c-1.3,1.2-1.3,3.2-0.2,4.4c1.2,1.3,3.2,1.3,4.4,0.2c0.1-0.1,0.1-0.1,0.2-0.2  l12.5-12.5c0.1-0.2,0.3-0.3,0.4-0.5c0.1-0.1,0.2-0.3,0.3-0.5C90.5,50.8,90.6,50.4,90.6,50z"/>
</svg>